<mxfile host="app.diagrams.net" modified="2022-03-06T18:47:54.999Z" agent="5.0 (X11; Linux x86_64) AppleWebKit/537.36 (KHTML, like Gecko) Chrome/98.0.4758.102 Safari/537.36" etag="_HvUg2dMAc5n2i97e8Mn" version="16.6.2" type="github">
  <diagram id="eaH_v75tBOMTthLSwXlI" name="Page-1">
    <mxGraphModel dx="909" dy="407" grid="1" gridSize="10" guides="1" tooltips="1" connect="1" arrows="1" fold="1" page="1" pageScale="1" pageWidth="1169" pageHeight="827" math="0" shadow="0">
      <root>
        <mxCell id="0" />
        <mxCell id="1" parent="0" />
        <mxCell id="Qfjiy_RcMArSj1-UPWjm-1" value="" style="rounded=1;whiteSpace=wrap;html=1;shadow=0;fillColor=#FFE6CC;" parent="1" vertex="1">
          <mxGeometry x="365" y="117" width="400" height="180" as="geometry" />
        </mxCell>
        <mxCell id="Qfjiy_RcMArSj1-UPWjm-3" value="" style="rounded=0;whiteSpace=wrap;html=1;fillColor=#CDA2BE;" parent="1" vertex="1">
          <mxGeometry x="386" y="131" width="120" height="60" as="geometry" />
        </mxCell>
        <mxCell id="Qfjiy_RcMArSj1-UPWjm-2" value="MetaData" style="rounded=0;whiteSpace=wrap;html=1;align=left;fillColor=#B9E0A5;" parent="1" vertex="1">
          <mxGeometry x="386" y="131" width="70" height="20" as="geometry" />
        </mxCell>
        <mxCell id="Qfjiy_RcMArSj1-UPWjm-4" value="" style="rounded=0;whiteSpace=wrap;html=1;fillColor=#CDA2BE;" parent="1" vertex="1">
          <mxGeometry x="396" y="151" width="120" height="60" as="geometry" />
        </mxCell>
        <mxCell id="Qfjiy_RcMArSj1-UPWjm-5" value="SchemaInfo" style="rounded=0;whiteSpace=wrap;html=1;align=left;fillColor=#B9E0A5;" parent="1" vertex="1">
          <mxGeometry x="396" y="151" width="70" height="20" as="geometry" />
        </mxCell>
        <mxCell id="Qfjiy_RcMArSj1-UPWjm-6" value="" style="rounded=0;whiteSpace=wrap;html=1;fillColor=#CDA2BE;" parent="1" vertex="1">
          <mxGeometry x="406" y="171" width="120" height="60" as="geometry" />
        </mxCell>
        <mxCell id="Qfjiy_RcMArSj1-UPWjm-7" value="DBInfo" style="rounded=0;whiteSpace=wrap;html=1;align=left;fillColor=#B9E0A5;" parent="1" vertex="1">
          <mxGeometry x="406" y="171" width="70" height="20" as="geometry" />
        </mxCell>
        <mxCell id="Qfjiy_RcMArSj1-UPWjm-8" value="管理右侧信息" style="rounded=0;whiteSpace=wrap;html=1;fillColor=#CDA2BE;" parent="1" vertex="1">
          <mxGeometry x="416" y="191" width="120" height="60" as="geometry" />
        </mxCell>
        <mxCell id="Qfjiy_RcMArSj1-UPWjm-9" value="TableInfo" style="rounded=0;whiteSpace=wrap;html=1;align=left;fillColor=#B9E0A5;" parent="1" vertex="1">
          <mxGeometry x="416" y="191" width="70" height="20" as="geometry" />
        </mxCell>
        <mxCell id="Qfjiy_RcMArSj1-UPWjm-10" value="" style="rounded=0;whiteSpace=wrap;html=1;fillColor=#CDA2BE;" parent="1" vertex="1">
          <mxGeometry x="570" y="140" width="73" height="26" as="geometry" />
        </mxCell>
        <mxCell id="Qfjiy_RcMArSj1-UPWjm-11" value="ColumnInfo" style="rounded=0;whiteSpace=wrap;html=1;align=left;fillColor=#B9E0A5;" parent="1" vertex="1">
          <mxGeometry x="570" y="140" width="63" height="16" as="geometry" />
        </mxCell>
        <mxCell id="Qfjiy_RcMArSj1-UPWjm-16" value="" style="rounded=0;whiteSpace=wrap;html=1;fillColor=#CDA2BE;" parent="1" vertex="1">
          <mxGeometry x="570" y="176" width="73" height="26" as="geometry" />
        </mxCell>
        <mxCell id="Qfjiy_RcMArSj1-UPWjm-17" value="IndexInfo" style="rounded=0;whiteSpace=wrap;html=1;align=left;fillColor=#B9E0A5;" parent="1" vertex="1">
          <mxGeometry x="570" y="176" width="63" height="16" as="geometry" />
        </mxCell>
        <mxCell id="Qfjiy_RcMArSj1-UPWjm-18" value="" style="rounded=0;whiteSpace=wrap;html=1;fillColor=#CDA2BE;" parent="1" vertex="1">
          <mxGeometry x="570" y="213" width="73" height="26" as="geometry" />
        </mxCell>
        <mxCell id="Qfjiy_RcMArSj1-UPWjm-19" value="PKInfo" style="rounded=0;whiteSpace=wrap;html=1;align=left;fillColor=#B9E0A5;" parent="1" vertex="1">
          <mxGeometry x="570" y="213" width="63" height="16" as="geometry" />
        </mxCell>
        <mxCell id="Qfjiy_RcMArSj1-UPWjm-20" value="" style="rounded=0;whiteSpace=wrap;html=1;fillColor=#CDA2BE;" parent="1" vertex="1">
          <mxGeometry x="570" y="250" width="73" height="26" as="geometry" />
        </mxCell>
        <mxCell id="Qfjiy_RcMArSj1-UPWjm-21" value="RowInfo" style="rounded=0;whiteSpace=wrap;html=1;align=left;fillColor=#B9E0A5;" parent="1" vertex="1">
          <mxGeometry x="570" y="250" width="63" height="16" as="geometry" />
        </mxCell>
        <mxCell id="Qfjiy_RcMArSj1-UPWjm-22" value="" style="rounded=0;whiteSpace=wrap;html=1;fillColor=#CDA2BE;" parent="1" vertex="1">
          <mxGeometry x="680" y="192" width="73" height="26" as="geometry" />
        </mxCell>
        <mxCell id="Qfjiy_RcMArSj1-UPWjm-23" value="DataOpt" style="rounded=0;whiteSpace=wrap;html=1;align=left;fillColor=#B9E0A5;" parent="1" vertex="1">
          <mxGeometry x="680" y="192" width="63" height="16" as="geometry" />
        </mxCell>
        <mxCell id="Qfjiy_RcMArSj1-UPWjm-24" value="" style="shape=curlyBracket;whiteSpace=wrap;html=1;rounded=1;fillColor=#CDA2BE;" parent="1" vertex="1">
          <mxGeometry x="546" y="147" width="20" height="120" as="geometry" />
        </mxCell>
        <mxCell id="Qfjiy_RcMArSj1-UPWjm-25" value="" style="shape=curlyBracket;whiteSpace=wrap;html=1;rounded=1;flipH=1;fillColor=#CDA2BE;" parent="1" vertex="1">
          <mxGeometry x="646" y="145" width="20" height="120" as="geometry" />
        </mxCell>
      </root>
    </mxGraphModel>
  </diagram>
</mxfile>
